<svg xmlns="http://www.w3.org/2000/svg" viewBox="0 0 18 14"><path fill="#fff" d="M0 0h18v14H0z"/><path stroke="#b22234" stroke-width="1.077" d="M0 .54h18M0 2.69h18M0 4.85h18M0 7h18M0 9.15h18M0 11.31h18M0 13.46h18"/><path fill="#3c3b6e" d="M0 0h7.8v7.54H0z"/><g fill="#fff"><circle cx="1" cy="1" r=".25"/><circle cx="2.9" cy="1" r=".25"/><circle cx="4.8" cy="1" r=".25"/><circle cx="6.7" cy="1" r=".25"/><circle cx="1.95" cy="2.2" r=".25"/><circle cx="3.85" cy="2.2" r=".25"/><circle cx="5.75" cy="2.2" r=".25"/><circle cx="1" cy="3.4" r=".25"/><circle cx="2.9" cy="3.4" r=".25"/><circle cx="4.8" cy="3.4" r=".25"/><circle cx="6.7" cy="3.4" r=".25"/><circle cx="1.95" cy="4.6" r=".25"/><circle cx="3.85" cy="4.6" r=".25"/><circle cx="5.75" cy="4.6" r=".25"/><circle cx="1" cy="5.8" r=".25"/><circle cx="2.9" cy="5.8" r=".25"/><circle cx="4.8" cy="5.8" r=".25"/><circle cx="6.7" cy="5.8" r=".25"/></g></svg>
